<svg width="37" height="36" viewBox="0 0 37 36" fill="none" xmlns="http://www.w3.org/2000/svg">
<path d="M36.7324 4.67965C36.7324 2.91934 34.6225 2.01758 33.3502 3.23415L18.9034 17.0484C18.5088 17.4258 18.2857 17.948 18.2857 18.4939L18.2857 30.3823C18.2857 32.1426 20.3956 33.0444 21.6679 31.8278L36.1146 18.0135C36.5092 17.6362 36.7324 17.1139 36.7324 16.568L36.7324 4.67965Z" fill="#FFC0B4"/>
<path d="M18.4468 4.67965C18.4468 2.91934 16.3368 2.01758 15.0646 3.23415L0.617794 17.0484C0.223203 17.4258 1.16997e-05 17.948 1.16042e-05 18.4939L9.52562e-06 30.3823C9.21784e-06 32.1426 2.10996 33.0444 3.38223 31.8278L17.829 18.0135C18.2236 17.6362 18.4468 17.1139 18.4468 16.568L18.4468 4.67965Z" fill="#524FD5"/>
</svg>
