<svg width="139" height="36" viewBox="0 0 139 36" fill="none" xmlns="http://www.w3.org/2000/svg">
<path d="M36.7324 4.67965C36.7324 2.91934 34.6225 2.01758 33.3502 3.23415L18.9034 17.0484C18.5088 17.4258 18.2857 17.948 18.2857 18.4939L18.2857 30.3823C18.2857 32.1426 20.3956 33.0444 21.6679 31.8278L36.1146 18.0135C36.5092 17.6362 36.7324 17.1139 36.7324 16.568L36.7324 4.67965Z" fill="#FFC0B4"/>
<path d="M18.4468 4.67965C18.4468 2.91934 16.3368 2.01758 15.0646 3.23415L0.617794 17.0484C0.223203 17.4258 1.16997e-05 17.948 1.16042e-05 18.4939L9.52562e-06 30.3823C9.21784e-06 32.1426 2.10996 33.0444 3.38223 31.8278L17.829 18.0135C18.2236 17.6362 18.4468 17.1139 18.4468 16.568L18.4468 4.67965Z" fill="#524FD5"/>
<g filter="url(#filter0_i_1304_163)">
<path d="M48.2891 15.7734L47.791 18.2832C47.5827 19.3249 47.4785 20.0638 47.4785 20.5C47.4785 21.3659 48.3184 21.7988 49.998 21.7988C51.6647 21.7988 53.1328 21.5026 54.4023 20.9102C54.1094 21.8867 53.6243 22.4889 52.9473 22.7168C52.5371 22.8535 51.8242 22.9935 50.8086 23.1367C49.793 23.2865 49.0117 23.3613 48.4648 23.3613C46.3359 23.3613 45.2715 22.6549 45.2715 21.2422C45.2715 20.8646 45.3757 20.1387 45.584 19.0645L46.2383 15.7734H46.0918C45.4342 15.7734 44.7962 15.9167 44.1777 16.2031C44.5358 15.5 44.8288 15.0508 45.0566 14.8555C45.291 14.6602 45.6589 14.5625 46.1602 14.5625H46.4824L47.4395 9.74805H47.1562C45.9518 9.74805 44.8353 10.1322 43.8066 10.9004C44.1322 9.85872 44.5781 9.18815 45.1445 8.88867C45.5872 8.66081 46.9512 8.54688 49.2363 8.54688H52.1465C53.9824 8.54688 55.4733 8.36458 56.6191 8C56.1048 8.8138 55.6458 9.30859 55.2422 9.48438C54.8451 9.66016 53.9792 9.74805 52.6445 9.74805H49.4902L48.5234 14.5625H50.5449C51.9577 14.5625 53.084 14.3835 53.9238 14.0254C53.4811 14.8522 53.0872 15.3503 52.7422 15.5195C52.3971 15.6888 51.5866 15.7734 50.3105 15.7734H48.2891ZM65.252 17.2871C64.2363 19.1165 63.1719 20.5684 62.0586 21.6426C60.9518 22.7103 59.9622 23.2441 59.0898 23.2441C58.3932 23.2441 57.8398 22.9414 57.4297 22.3359C57.0195 21.724 56.8145 20.9069 56.8145 19.8848C56.8145 17.8275 57.4264 16.0273 58.6504 14.4844C59.8743 12.9349 61.2969 12.1602 62.918 12.1602C63.888 12.1602 64.946 12.4694 66.0918 13.0879L67.1367 7.82422C66.5638 7.94141 66.0885 8 65.7109 8C65.138 8 64.7181 7.86654 64.4512 7.59961C64.1842 7.32617 63.9694 6.81836 63.8066 6.07617C64.2754 6.39518 64.9948 6.55469 65.9648 6.55469C67.1693 6.55469 68.3314 6.33333 69.4512 5.89062L67.3223 16.5938C67.0814 17.7917 66.9609 18.8105 66.9609 19.6504C66.9609 20.7702 67.2799 21.3301 67.918 21.3301C68.543 21.3301 69.5814 20.5977 71.0332 19.1328C72.4915 17.668 73.7057 16.1348 74.6758 14.5332L75.4766 15.041C74.3177 17.1634 72.8691 19.0612 71.1309 20.7344C69.3991 22.4076 68.0156 23.2441 66.9805 23.2441C65.6654 23.2441 65.0078 22.1895 65.0078 20.0801C65.0078 19.2077 65.0892 18.2767 65.252 17.2871ZM65.7695 14.6992C64.4154 13.8073 63.2891 13.3613 62.3906 13.3613C61.4141 13.3613 60.5677 13.9603 59.8516 15.1582C59.1419 16.3561 58.7871 17.7721 58.7871 19.4062C58.7871 20.7214 59.2168 21.3789 60.0762 21.3789C61.0007 21.3789 62.778 19.3346 65.4082 15.2461C65.4538 15.1745 65.5742 14.9922 65.7695 14.6992ZM81.6191 16.9844C80.7207 18.8398 79.7181 20.347 78.6113 21.5059C77.5046 22.6647 76.5117 23.2441 75.6328 23.2441C74.9232 23.2441 74.347 22.9935 73.9043 22.4922C73.4616 21.9909 73.2402 21.3398 73.2402 20.5391C73.2402 19.5104 73.5853 17.6224 74.2754 14.875C74.4642 14.1328 74.5586 13.6641 74.5586 13.4688C74.5586 13.2734 74.4967 13.0618 74.373 12.834L75.7207 12.8242C76.3001 12.8242 76.5898 13.0488 76.5898 13.498C76.5898 13.778 76.401 14.582 76.0234 15.9102C75.9062 16.3073 75.8314 16.5807 75.7988 16.7305L75.6523 17.3262C75.3659 18.5176 75.2227 19.4258 75.2227 20.0508C75.2227 21.0143 75.5547 21.4961 76.2188 21.4961C77.306 21.4961 78.6862 20.1484 80.3594 17.4531C81.7266 15.2591 82.4102 13.6966 82.4102 12.7656C82.4102 12.6354 82.3711 12.5052 82.293 12.375C82.8268 12.2253 83.2793 12.1504 83.6504 12.1504C84.2233 12.1504 84.5098 12.3262 84.5098 12.6777C84.5098 12.7624 84.4837 12.8861 84.4316 13.0488C84.4056 13.1465 84.3438 13.3841 84.2461 13.7617C84.2331 13.8333 84.168 14.097 84.0508 14.5527C83.9661 14.8717 83.9043 15.1257 83.8652 15.3145L83.7676 15.7832C83.5527 16.8574 83.4453 17.8633 83.4453 18.8008C83.4453 20.2331 83.7904 20.9492 84.4805 20.9492C86.0039 20.9492 87.9375 18.8008 90.2812 14.5039L91.1016 14.9922C88.4323 20.1289 85.9909 22.6973 83.7773 22.6973C82.2865 22.6973 81.541 21.4049 81.541 18.8203C81.541 18.332 81.5671 17.7201 81.6191 16.9844ZM102.527 15.0215C100.952 17.6647 99.2819 19.748 97.5176 21.2715C95.7533 22.7884 94.1159 23.5469 92.6055 23.5469C91.349 23.5469 90.3301 23.1172 89.5488 22.2578C88.7676 21.3984 88.377 20.2819 88.377 18.9082C88.377 17.0983 89.0508 15.5228 90.3984 14.1816C91.7461 12.834 93.3281 12.1602 95.1445 12.1602C95.8802 12.1602 96.4824 12.3034 96.9512 12.5898C97.4264 12.8698 97.6641 13.2279 97.6641 13.6641C97.6641 14.3802 97.0553 14.9173 95.8379 15.2754C95.903 15.1191 95.9355 14.9694 95.9355 14.8262C95.9355 13.7715 95.3757 13.2441 94.2559 13.2441C93.2858 13.2441 92.3906 13.7878 91.5703 14.875C90.7565 15.9557 90.3496 17.1406 90.3496 18.4297C90.3496 19.4779 90.6198 20.334 91.1602 20.998C91.707 21.6556 92.4167 21.9844 93.2891 21.9844C95.6849 21.9844 98.4909 19.5007 101.707 14.5332L102.527 15.0215ZM108.191 17.0332C107.358 18.7585 106.329 20.2266 105.105 21.4375C103.888 22.6419 102.827 23.2441 101.922 23.2441C101.232 23.2441 100.678 22.9382 100.262 22.3262C99.8516 21.7077 99.6465 20.8874 99.6465 19.8652C99.6465 17.8275 100.262 16.0339 101.492 14.4844C102.729 12.9349 104.158 12.1602 105.779 12.1602C106.762 12.1602 107.827 12.4661 108.973 13.0781C109.142 12.4727 109.832 12.1699 111.043 12.1699C111.121 12.1699 111.248 12.1732 111.424 12.1797C111.053 12.7461 110.77 13.5208 110.574 14.5039L110.408 15.334C110.219 16.2585 110.125 17.3392 110.125 18.5762C110.125 20.002 110.457 20.7148 111.121 20.7148C111.824 20.7148 112.785 20.1289 114.002 18.957C115.226 17.7786 116.427 16.2812 117.605 14.4648L118.367 14.9922C117.163 17.1406 115.786 18.9342 114.236 20.373C112.687 21.8053 111.355 22.5215 110.242 22.5215C108.836 22.5215 108.133 21.3496 108.133 19.0059C108.133 18.5176 108.152 17.86 108.191 17.0332ZM108.65 14.6992C107.283 13.8073 106.147 13.3613 105.242 13.3613C104.259 13.3613 103.41 13.9603 102.693 15.1582C101.977 16.3496 101.619 17.7656 101.619 19.4062C101.619 20.7214 102.049 21.3789 102.908 21.3789C103.839 21.3789 105.62 19.3346 108.25 15.2461C108.283 15.194 108.416 15.0117 108.65 14.6992ZM123.064 19.1328C123.24 19.4518 123.328 19.7318 123.328 19.9727C123.328 20.6107 122.788 21.3171 121.707 22.0918C120.633 22.86 119.653 23.2441 118.768 23.2441C117.986 23.2441 117.348 22.8958 116.854 22.1992C116.365 21.5026 116.121 20.6042 116.121 19.5039C116.121 18.2799 116.443 16.5384 117.088 14.2793L117.537 12.6387H115.887C115.197 12.6387 114.646 12.7363 114.236 12.9316C114.614 12.2415 114.926 11.8086 115.174 11.6328C115.421 11.457 115.841 11.3691 116.434 11.3691H117.908L118.104 10.6953C118.403 9.69271 118.761 9.00586 119.178 8.63477C119.594 8.25716 120.219 8.06836 121.053 8.06836C121.15 8.06836 121.307 8.07487 121.521 8.08789C121.014 8.73893 120.486 9.83268 119.939 11.3691H125.096C126.001 11.3691 126.691 11.252 127.166 11.0176C127.003 11.6882 126.785 12.1276 126.512 12.3359C126.245 12.5378 125.743 12.6387 125.008 12.6387H119.52C119.454 12.8535 119.406 13.013 119.373 13.1172C118.585 15.7995 118.191 17.8242 118.191 19.1914C118.191 20.7018 118.735 21.457 119.822 21.457C120.382 21.457 120.991 21.2194 121.648 20.7441C122.312 20.2689 122.785 19.7318 123.064 19.1328ZM126.424 18.9375C126.424 20.8451 127.231 21.7988 128.846 21.7988C130.245 21.7988 131.788 21.1315 133.475 19.7969C135.161 18.4622 136.681 16.7044 138.035 14.5234L138.865 14.9824C137.589 17.3652 135.929 19.3379 133.885 20.9004C131.847 22.4629 129.913 23.2441 128.084 23.2441C126.912 23.2441 125.984 22.8665 125.301 22.1113C124.624 21.3561 124.285 20.3242 124.285 19.0156C124.285 17.1276 124.9 15.513 126.131 14.1719C127.368 12.8307 128.855 12.1602 130.594 12.1602C131.434 12.1602 132.104 12.3717 132.605 12.7949C133.113 13.2181 133.367 13.7845 133.367 14.4941C133.367 15.6595 132.664 16.6914 131.258 17.5898C129.858 18.4883 128.247 18.9375 126.424 18.9375ZM126.502 18C127.863 17.9284 129.028 17.5378 129.998 16.8281C130.975 16.1185 131.463 15.2982 131.463 14.3672C131.463 13.5339 131.092 13.1172 130.35 13.1172C129.464 13.1172 128.647 13.5924 127.898 14.543C127.15 15.4935 126.684 16.6458 126.502 18Z" fill="#413DD1"/>
</g>
<defs>
<filter id="filter0_i_1304_163" x="43.8066" y="5.89062" width="95.0586" height="21.6562" filterUnits="userSpaceOnUse" color-interpolation-filters="sRGB">
<feFlood flood-opacity="0" result="BackgroundImageFix"/>
<feBlend mode="normal" in="SourceGraphic" in2="BackgroundImageFix" result="shape"/>
<feColorMatrix in="SourceAlpha" type="matrix" values="0 0 0 0 0 0 0 0 0 0 0 0 0 0 0 0 0 0 127 0" result="hardAlpha"/>
<feOffset dy="4"/>
<feGaussianBlur stdDeviation="2"/>
<feComposite in2="hardAlpha" operator="arithmetic" k2="-1" k3="1"/>
<feColorMatrix type="matrix" values="0 0 0 0 0 0 0 0 0 0 0 0 0 0 0 0 0 0 0.25 0"/>
<feBlend mode="normal" in2="shape" result="effect1_innerShadow_1304_163"/>
</filter>
</defs>
</svg>
